<mxfile host="app.diagrams.net" modified="2022-04-27T21:04:54.657Z" agent="5.0 (Windows NT 10.0; Win64; x64) AppleWebKit/537.36 (KHTML, like Gecko) Chrome/100.0.4896.127 Safari/537.36" etag="K4c8M-x1yHBf9SRecvk3" version="17.4.6" type="github">
  <diagram id="GzCIipWq3ORpknATpzXa" name="Page-1">
    <mxGraphModel dx="1254" dy="841" grid="1" gridSize="10" guides="1" tooltips="1" connect="1" arrows="1" fold="1" page="1" pageScale="1" pageWidth="827" pageHeight="1169" math="0" shadow="0">
      <root>
        <mxCell id="0" />
        <mxCell id="1" parent="0" />
        <mxCell id="tkpzPsRGhapKk5cAF0i6-4" value="" style="swimlane;startSize=0;" vertex="1" parent="1">
          <mxGeometry x="110" y="129" width="590" height="910" as="geometry" />
        </mxCell>
        <mxCell id="tkpzPsRGhapKk5cAF0i6-5" value="Supermarket Information System" style="text;html=1;align=center;verticalAlign=middle;resizable=0;points=[];autosize=1;strokeColor=none;fillColor=none;" vertex="1" parent="tkpzPsRGhapKk5cAF0i6-4">
          <mxGeometry x="209" y="20" width="190" height="20" as="geometry" />
        </mxCell>
        <mxCell id="tkpzPsRGhapKk5cAF0i6-13" value="Verify Sufficient Funds" style="ellipse;whiteSpace=wrap;html=1;" vertex="1" parent="tkpzPsRGhapKk5cAF0i6-4">
          <mxGeometry x="290" y="440" width="140" height="70" as="geometry" />
        </mxCell>
        <mxCell id="tkpzPsRGhapKk5cAF0i6-15" value="Register with Online Store" style="ellipse;whiteSpace=wrap;html=1;" vertex="1" parent="tkpzPsRGhapKk5cAF0i6-4">
          <mxGeometry x="10" y="60" width="140" height="70" as="geometry" />
        </mxCell>
        <mxCell id="tkpzPsRGhapKk5cAF0i6-18" value="Purchase Goods" style="ellipse;whiteSpace=wrap;html=1;" vertex="1" parent="tkpzPsRGhapKk5cAF0i6-4">
          <mxGeometry x="160" y="330" width="140" height="70" as="geometry" />
        </mxCell>
        <mxCell id="tkpzPsRGhapKk5cAF0i6-19" value="Register Reduced Stock" style="ellipse;whiteSpace=wrap;html=1;" vertex="1" parent="tkpzPsRGhapKk5cAF0i6-4">
          <mxGeometry x="440" y="380" width="140" height="70" as="geometry" />
        </mxCell>
        <mxCell id="tkpzPsRGhapKk5cAF0i6-20" value="Place an Order of Goods" style="ellipse;whiteSpace=wrap;html=1;" vertex="1" parent="tkpzPsRGhapKk5cAF0i6-4">
          <mxGeometry x="440" y="240" width="140" height="70" as="geometry" />
        </mxCell>
        <mxCell id="tkpzPsRGhapKk5cAF0i6-21" value="Register with Loyality Programme Company" style="ellipse;whiteSpace=wrap;html=1;" vertex="1" parent="tkpzPsRGhapKk5cAF0i6-4">
          <mxGeometry x="60" y="811" width="140" height="70" as="geometry" />
        </mxCell>
        <mxCell id="tkpzPsRGhapKk5cAF0i6-22" value="Award points" style="ellipse;whiteSpace=wrap;html=1;" vertex="1" parent="tkpzPsRGhapKk5cAF0i6-4">
          <mxGeometry x="150" y="600" width="140" height="70" as="geometry" />
        </mxCell>
        <mxCell id="tkpzPsRGhapKk5cAF0i6-25" value="Send Loyality Card" style="ellipse;whiteSpace=wrap;html=1;" vertex="1" parent="tkpzPsRGhapKk5cAF0i6-4">
          <mxGeometry x="250" y="701" width="140" height="70" as="geometry" />
        </mxCell>
        <mxCell id="tkpzPsRGhapKk5cAF0i6-26" value="Use Loyality Points" style="ellipse;whiteSpace=wrap;html=1;" vertex="1" parent="tkpzPsRGhapKk5cAF0i6-4">
          <mxGeometry x="20" y="450" width="140" height="70" as="geometry" />
        </mxCell>
        <mxCell id="tkpzPsRGhapKk5cAF0i6-29" value="Collect Purchase Information" style="ellipse;whiteSpace=wrap;html=1;" vertex="1" parent="tkpzPsRGhapKk5cAF0i6-4">
          <mxGeometry x="440" y="130" width="140" height="70" as="geometry" />
        </mxCell>
        <mxCell id="tkpzPsRGhapKk5cAF0i6-50" value="&amp;lt;&amp;lt;extends&amp;gt;&amp;gt;" style="endArrow=open;startArrow=none;endFill=0;startFill=0;endSize=8;html=1;verticalAlign=bottom;dashed=1;labelBackgroundColor=none;rounded=0;exitX=1;exitY=0;exitDx=0;exitDy=0;entryX=0;entryY=1;entryDx=0;entryDy=0;" edge="1" parent="tkpzPsRGhapKk5cAF0i6-4" target="tkpzPsRGhapKk5cAF0i6-18">
          <mxGeometry width="160" relative="1" as="geometry">
            <mxPoint x="139.49747468306032" y="470.2512626584694" as="sourcePoint" />
            <mxPoint x="420" y="560" as="targetPoint" />
          </mxGeometry>
        </mxCell>
        <mxCell id="tkpzPsRGhapKk5cAF0i6-52" value="&amp;lt;&amp;lt;iclude&amp;gt;&amp;gt;" style="endArrow=open;startArrow=none;endFill=0;startFill=0;endSize=8;html=1;verticalAlign=bottom;dashed=1;labelBackgroundColor=none;rounded=0;exitX=0.5;exitY=1;exitDx=0;exitDy=0;" edge="1" parent="tkpzPsRGhapKk5cAF0i6-4" source="tkpzPsRGhapKk5cAF0i6-15" target="tkpzPsRGhapKk5cAF0i6-78">
          <mxGeometry width="160" relative="1" as="geometry">
            <mxPoint x="270" y="560" as="sourcePoint" />
            <mxPoint x="82.38063667653819" y="150" as="targetPoint" />
          </mxGeometry>
        </mxCell>
        <mxCell id="tkpzPsRGhapKk5cAF0i6-53" value="&amp;lt;&amp;lt;extends&amp;gt;&amp;gt;" style="endArrow=open;startArrow=none;endFill=0;startFill=0;endSize=8;html=1;verticalAlign=bottom;dashed=1;labelBackgroundColor=none;rounded=0;exitX=0.5;exitY=1;exitDx=0;exitDy=0;entryX=0.5;entryY=0;entryDx=0;entryDy=0;" edge="1" parent="tkpzPsRGhapKk5cAF0i6-4" source="tkpzPsRGhapKk5cAF0i6-20" target="tkpzPsRGhapKk5cAF0i6-19">
          <mxGeometry width="160" relative="1" as="geometry">
            <mxPoint x="520" y="360" as="sourcePoint" />
            <mxPoint x="500" y="390" as="targetPoint" />
          </mxGeometry>
        </mxCell>
        <mxCell id="tkpzPsRGhapKk5cAF0i6-55" value="&amp;lt;&amp;lt;Incllude&amp;gt;&amp;gt;" style="endArrow=open;startArrow=none;endFill=0;startFill=0;endSize=8;html=1;verticalAlign=bottom;dashed=1;labelBackgroundColor=none;rounded=0;exitX=1;exitY=1;exitDx=0;exitDy=0;entryX=0;entryY=0.5;entryDx=0;entryDy=0;" edge="1" parent="tkpzPsRGhapKk5cAF0i6-4" source="tkpzPsRGhapKk5cAF0i6-18" target="tkpzPsRGhapKk5cAF0i6-19">
          <mxGeometry x="-0.1365" y="10" width="160" relative="1" as="geometry">
            <mxPoint x="260" y="480" as="sourcePoint" />
            <mxPoint x="450.5025253169374" y="410.2512626584685" as="targetPoint" />
            <mxPoint as="offset" />
          </mxGeometry>
        </mxCell>
        <mxCell id="tkpzPsRGhapKk5cAF0i6-58" value="&amp;lt;&amp;lt;Incllude&amp;gt;&amp;gt;" style="endArrow=open;startArrow=none;endFill=0;startFill=0;endSize=8;html=1;verticalAlign=bottom;dashed=1;labelBackgroundColor=none;rounded=0;exitX=0.5;exitY=1;exitDx=0;exitDy=0;entryX=0;entryY=0;entryDx=0;entryDy=0;" edge="1" parent="tkpzPsRGhapKk5cAF0i6-4" source="tkpzPsRGhapKk5cAF0i6-18" target="tkpzPsRGhapKk5cAF0i6-13">
          <mxGeometry x="0.4008" y="10" width="160" relative="1" as="geometry">
            <mxPoint x="339.78275557952225" y="469.60526999907415" as="sourcePoint" />
            <mxPoint x="460.21724442047594" y="470.3947300009247" as="targetPoint" />
            <mxPoint as="offset" />
            <Array as="points" />
          </mxGeometry>
        </mxCell>
        <mxCell id="tkpzPsRGhapKk5cAF0i6-56" value="&amp;lt;&amp;lt;Incllude&amp;gt;&amp;gt;" style="endArrow=open;startArrow=none;endFill=0;startFill=0;endSize=8;html=1;verticalAlign=bottom;dashed=1;labelBackgroundColor=none;rounded=0;exitX=1;exitY=0;exitDx=0;exitDy=0;entryX=0.5;entryY=1;entryDx=0;entryDy=0;" edge="1" parent="tkpzPsRGhapKk5cAF0i6-4" source="tkpzPsRGhapKk5cAF0i6-18" target="tkpzPsRGhapKk5cAF0i6-29">
          <mxGeometry x="-0.1365" y="10" width="160" relative="1" as="geometry">
            <mxPoint x="329.78275557952225" y="390.39473000092585" as="sourcePoint" />
            <mxPoint x="481" y="260" as="targetPoint" />
            <mxPoint as="offset" />
          </mxGeometry>
        </mxCell>
        <mxCell id="tkpzPsRGhapKk5cAF0i6-62" value="&amp;lt;&amp;lt;extends&amp;gt;&amp;gt;" style="endArrow=open;startArrow=none;endFill=0;startFill=0;endSize=8;html=1;verticalAlign=bottom;dashed=1;labelBackgroundColor=none;rounded=0;exitX=0.5;exitY=0;exitDx=0;exitDy=0;entryX=0;entryY=1;entryDx=0;entryDy=0;" edge="1" parent="tkpzPsRGhapKk5cAF0i6-4" source="tkpzPsRGhapKk5cAF0i6-22" target="tkpzPsRGhapKk5cAF0i6-18">
          <mxGeometry width="160" relative="1" as="geometry">
            <mxPoint x="179.78275557952225" y="635.3947300009258" as="sourcePoint" />
            <mxPoint x="240.21724442047775" y="469.60526999907415" as="targetPoint" />
          </mxGeometry>
        </mxCell>
        <mxCell id="tkpzPsRGhapKk5cAF0i6-71" value="&amp;lt;&amp;lt;Incllude&amp;gt;&amp;gt;" style="endArrow=open;startArrow=none;endFill=0;startFill=0;endSize=8;html=1;verticalAlign=bottom;dashed=1;labelBackgroundColor=none;rounded=0;exitX=0;exitY=0.5;exitDx=0;exitDy=0;entryX=1;entryY=0;entryDx=0;entryDy=0;" edge="1" parent="tkpzPsRGhapKk5cAF0i6-4" source="tkpzPsRGhapKk5cAF0i6-25" target="tkpzPsRGhapKk5cAF0i6-21">
          <mxGeometry x="-0.1365" y="10" width="160" relative="1" as="geometry">
            <mxPoint x="130" y="520" as="sourcePoint" />
            <mxPoint x="110.21724442047594" y="660.3947300009249" as="targetPoint" />
            <mxPoint as="offset" />
          </mxGeometry>
        </mxCell>
        <mxCell id="tkpzPsRGhapKk5cAF0i6-75" value="Decline Transaction" style="ellipse;whiteSpace=wrap;html=1;" vertex="1" parent="tkpzPsRGhapKk5cAF0i6-4">
          <mxGeometry x="420" y="575" width="140" height="70" as="geometry" />
        </mxCell>
        <mxCell id="tkpzPsRGhapKk5cAF0i6-76" value="&amp;lt;&amp;lt;extends&amp;gt;&amp;gt;" style="endArrow=open;startArrow=none;endFill=0;startFill=0;endSize=8;html=1;verticalAlign=bottom;dashed=1;labelBackgroundColor=none;rounded=0;exitX=0.559;exitY=1.068;exitDx=0;exitDy=0;entryX=0;entryY=0;entryDx=0;entryDy=0;exitPerimeter=0;" edge="1" parent="tkpzPsRGhapKk5cAF0i6-4" source="tkpzPsRGhapKk5cAF0i6-13" target="tkpzPsRGhapKk5cAF0i6-75">
          <mxGeometry width="160" relative="1" as="geometry">
            <mxPoint x="179.78275557952225" y="309.60526999907427" as="sourcePoint" />
            <mxPoint x="440.5025253169374" y="595.2512626584685" as="targetPoint" />
          </mxGeometry>
        </mxCell>
        <mxCell id="tkpzPsRGhapKk5cAF0i6-83" style="edgeStyle=orthogonalEdgeStyle;rounded=0;orthogonalLoop=1;jettySize=auto;html=1;exitX=0.5;exitY=1;exitDx=0;exitDy=0;" edge="1" parent="tkpzPsRGhapKk5cAF0i6-4" source="tkpzPsRGhapKk5cAF0i6-78" target="tkpzPsRGhapKk5cAF0i6-18">
          <mxGeometry relative="1" as="geometry" />
        </mxCell>
        <mxCell id="tkpzPsRGhapKk5cAF0i6-78" value="Purchase Online" style="ellipse;whiteSpace=wrap;html=1;" vertex="1" parent="tkpzPsRGhapKk5cAF0i6-4">
          <mxGeometry x="80" y="181" width="140" height="70" as="geometry" />
        </mxCell>
        <mxCell id="tkpzPsRGhapKk5cAF0i6-82" value="Purchase in-Store" style="ellipse;whiteSpace=wrap;html=1;" vertex="1" parent="tkpzPsRGhapKk5cAF0i6-4">
          <mxGeometry x="234" y="181" width="140" height="70" as="geometry" />
        </mxCell>
        <mxCell id="tkpzPsRGhapKk5cAF0i6-84" style="edgeStyle=orthogonalEdgeStyle;rounded=0;orthogonalLoop=1;jettySize=auto;html=1;exitX=0.5;exitY=1;exitDx=0;exitDy=0;entryX=0.5;entryY=0;entryDx=0;entryDy=0;" edge="1" parent="tkpzPsRGhapKk5cAF0i6-4" source="tkpzPsRGhapKk5cAF0i6-82" target="tkpzPsRGhapKk5cAF0i6-18">
          <mxGeometry relative="1" as="geometry">
            <mxPoint x="230" y="321" as="targetPoint" />
          </mxGeometry>
        </mxCell>
        <mxCell id="tkpzPsRGhapKk5cAF0i6-6" value="Customer" style="shape=umlActor;verticalLabelPosition=bottom;verticalAlign=top;html=1;" vertex="1" parent="1">
          <mxGeometry x="30" y="370" width="30" height="60" as="geometry" />
        </mxCell>
        <mxCell id="tkpzPsRGhapKk5cAF0i6-10" value="Bank" style="shape=umlActor;verticalLabelPosition=bottom;verticalAlign=top;html=1;" vertex="1" parent="1">
          <mxGeometry x="750" y="670" width="30" height="60" as="geometry" />
        </mxCell>
        <mxCell id="tkpzPsRGhapKk5cAF0i6-11" value="Supplier" style="shape=umlActor;verticalLabelPosition=bottom;verticalAlign=top;html=1;" vertex="1" parent="1">
          <mxGeometry x="750" y="370" width="30" height="60" as="geometry" />
        </mxCell>
        <mxCell id="tkpzPsRGhapKk5cAF0i6-12" value="Loyality Programme&lt;br&gt;Company" style="shape=umlActor;verticalLabelPosition=bottom;verticalAlign=top;html=1;" vertex="1" parent="1">
          <mxGeometry x="750" y="850" width="30" height="60" as="geometry" />
        </mxCell>
        <mxCell id="tkpzPsRGhapKk5cAF0i6-16" value="Supermarket" style="shape=umlActor;verticalLabelPosition=bottom;verticalAlign=top;html=1;" vertex="1" parent="1">
          <mxGeometry x="750" y="510" width="30" height="60" as="geometry" />
        </mxCell>
        <mxCell id="tkpzPsRGhapKk5cAF0i6-27" value="Marketing Department" style="shape=umlActor;verticalLabelPosition=bottom;verticalAlign=top;html=1;" vertex="1" parent="1">
          <mxGeometry x="750" y="220" width="30" height="60" as="geometry" />
        </mxCell>
        <mxCell id="tkpzPsRGhapKk5cAF0i6-35" value="" style="endArrow=none;html=1;rounded=0;exitX=1;exitY=0.5;exitDx=0;exitDy=0;entryX=0;entryY=0.3333333333333333;entryDx=0;entryDy=0;entryPerimeter=0;" edge="1" parent="1" source="tkpzPsRGhapKk5cAF0i6-20" target="tkpzPsRGhapKk5cAF0i6-11">
          <mxGeometry width="50" height="50" relative="1" as="geometry">
            <mxPoint x="340" y="390" as="sourcePoint" />
            <mxPoint x="390" y="340" as="targetPoint" />
          </mxGeometry>
        </mxCell>
        <mxCell id="tkpzPsRGhapKk5cAF0i6-39" value="" style="endArrow=none;html=1;rounded=0;exitX=0;exitY=0.3333333333333333;exitDx=0;exitDy=0;exitPerimeter=0;entryX=1;entryY=0.5;entryDx=0;entryDy=0;" edge="1" parent="1" source="tkpzPsRGhapKk5cAF0i6-16" target="tkpzPsRGhapKk5cAF0i6-19">
          <mxGeometry width="50" height="50" relative="1" as="geometry">
            <mxPoint x="340" y="390" as="sourcePoint" />
            <mxPoint x="390" y="340" as="targetPoint" />
          </mxGeometry>
        </mxCell>
        <mxCell id="tkpzPsRGhapKk5cAF0i6-40" value="" style="endArrow=none;html=1;rounded=0;exitX=1;exitY=0.5;exitDx=0;exitDy=0;entryX=0;entryY=0.3333333333333333;entryDx=0;entryDy=0;entryPerimeter=0;" edge="1" parent="1" source="tkpzPsRGhapKk5cAF0i6-29" target="tkpzPsRGhapKk5cAF0i6-27">
          <mxGeometry width="50" height="50" relative="1" as="geometry">
            <mxPoint x="340" y="390" as="sourcePoint" />
            <mxPoint x="390" y="340" as="targetPoint" />
          </mxGeometry>
        </mxCell>
        <mxCell id="tkpzPsRGhapKk5cAF0i6-41" value="" style="endArrow=none;html=1;rounded=0;exitX=1;exitY=1;exitDx=0;exitDy=0;entryX=0;entryY=0.3333333333333333;entryDx=0;entryDy=0;entryPerimeter=0;" edge="1" parent="1" source="tkpzPsRGhapKk5cAF0i6-13" target="tkpzPsRGhapKk5cAF0i6-10">
          <mxGeometry width="50" height="50" relative="1" as="geometry">
            <mxPoint x="340" y="390" as="sourcePoint" />
            <mxPoint x="390" y="340" as="targetPoint" />
          </mxGeometry>
        </mxCell>
        <mxCell id="tkpzPsRGhapKk5cAF0i6-44" value="" style="endArrow=none;html=1;rounded=0;exitX=1;exitY=0.3333333333333333;exitDx=0;exitDy=0;exitPerimeter=0;entryX=0;entryY=0.5;entryDx=0;entryDy=0;" edge="1" parent="1" source="tkpzPsRGhapKk5cAF0i6-6" target="tkpzPsRGhapKk5cAF0i6-15">
          <mxGeometry width="50" height="50" relative="1" as="geometry">
            <mxPoint x="340" y="500" as="sourcePoint" />
            <mxPoint x="390" y="450" as="targetPoint" />
          </mxGeometry>
        </mxCell>
        <mxCell id="tkpzPsRGhapKk5cAF0i6-45" value="" style="endArrow=none;html=1;rounded=0;exitX=1;exitY=0.3333333333333333;exitDx=0;exitDy=0;exitPerimeter=0;entryX=0;entryY=0.5;entryDx=0;entryDy=0;" edge="1" parent="1" source="tkpzPsRGhapKk5cAF0i6-6" target="tkpzPsRGhapKk5cAF0i6-18">
          <mxGeometry width="50" height="50" relative="1" as="geometry">
            <mxPoint x="340" y="500" as="sourcePoint" />
            <mxPoint x="390" y="450" as="targetPoint" />
          </mxGeometry>
        </mxCell>
        <mxCell id="tkpzPsRGhapKk5cAF0i6-47" value="" style="endArrow=none;html=1;rounded=0;entryX=0;entryY=0.5;entryDx=0;entryDy=0;" edge="1" parent="1" target="tkpzPsRGhapKk5cAF0i6-26">
          <mxGeometry width="50" height="50" relative="1" as="geometry">
            <mxPoint x="60" y="390" as="sourcePoint" />
            <mxPoint x="390" y="450" as="targetPoint" />
          </mxGeometry>
        </mxCell>
        <mxCell id="tkpzPsRGhapKk5cAF0i6-59" value="" style="endArrow=none;html=1;rounded=0;exitX=0;exitY=0.5;exitDx=0;exitDy=0;" edge="1" parent="1" source="tkpzPsRGhapKk5cAF0i6-21">
          <mxGeometry width="50" height="50" relative="1" as="geometry">
            <mxPoint x="410" y="570" as="sourcePoint" />
            <mxPoint x="60" y="390" as="targetPoint" />
          </mxGeometry>
        </mxCell>
        <mxCell id="tkpzPsRGhapKk5cAF0i6-60" value="" style="endArrow=none;html=1;rounded=0;exitX=1;exitY=0.5;exitDx=0;exitDy=0;entryX=0;entryY=0.3333333333333333;entryDx=0;entryDy=0;entryPerimeter=0;" edge="1" parent="1" source="tkpzPsRGhapKk5cAF0i6-25" target="tkpzPsRGhapKk5cAF0i6-12">
          <mxGeometry width="50" height="50" relative="1" as="geometry">
            <mxPoint x="410" y="650" as="sourcePoint" />
            <mxPoint x="460" y="600" as="targetPoint" />
          </mxGeometry>
        </mxCell>
        <mxCell id="tkpzPsRGhapKk5cAF0i6-61" value="" style="endArrow=none;html=1;rounded=0;exitX=1;exitY=0.5;exitDx=0;exitDy=0;entryX=0;entryY=0.3333333333333333;entryDx=0;entryDy=0;entryPerimeter=0;" edge="1" parent="1" source="tkpzPsRGhapKk5cAF0i6-22" target="tkpzPsRGhapKk5cAF0i6-12">
          <mxGeometry width="50" height="50" relative="1" as="geometry">
            <mxPoint x="410" y="650" as="sourcePoint" />
            <mxPoint x="750" y="640" as="targetPoint" />
          </mxGeometry>
        </mxCell>
        <mxCell id="tkpzPsRGhapKk5cAF0i6-63" value="" style="endArrow=none;html=1;rounded=0;exitX=1;exitY=1;exitDx=0;exitDy=0;entryX=0;entryY=0.3333333333333333;entryDx=0;entryDy=0;entryPerimeter=0;" edge="1" parent="1" source="tkpzPsRGhapKk5cAF0i6-26" target="tkpzPsRGhapKk5cAF0i6-12">
          <mxGeometry width="50" height="50" relative="1" as="geometry">
            <mxPoint x="410" y="650" as="sourcePoint" />
            <mxPoint x="460" y="600" as="targetPoint" />
          </mxGeometry>
        </mxCell>
        <mxCell id="tkpzPsRGhapKk5cAF0i6-64" value="" style="endArrow=none;html=1;rounded=0;exitX=1;exitY=0.5;exitDx=0;exitDy=0;entryX=0;entryY=0.3333333333333333;entryDx=0;entryDy=0;entryPerimeter=0;" edge="1" parent="1" source="tkpzPsRGhapKk5cAF0i6-26" target="tkpzPsRGhapKk5cAF0i6-10">
          <mxGeometry width="50" height="50" relative="1" as="geometry">
            <mxPoint x="410" y="650" as="sourcePoint" />
            <mxPoint x="460" y="600" as="targetPoint" />
          </mxGeometry>
        </mxCell>
        <mxCell id="tkpzPsRGhapKk5cAF0i6-66" value="" style="endArrow=none;html=1;rounded=0;exitX=1;exitY=0.5;exitDx=0;exitDy=0;entryX=0;entryY=0.3333333333333333;entryDx=0;entryDy=0;entryPerimeter=0;" edge="1" parent="1" source="tkpzPsRGhapKk5cAF0i6-21" target="tkpzPsRGhapKk5cAF0i6-12">
          <mxGeometry width="50" height="50" relative="1" as="geometry">
            <mxPoint x="410" y="650" as="sourcePoint" />
            <mxPoint x="740" y="660" as="targetPoint" />
          </mxGeometry>
        </mxCell>
        <mxCell id="tkpzPsRGhapKk5cAF0i6-77" value="" style="endArrow=none;html=1;rounded=0;exitX=1;exitY=0.5;exitDx=0;exitDy=0;entryX=0;entryY=0.3333333333333333;entryDx=0;entryDy=0;entryPerimeter=0;" edge="1" parent="1" source="tkpzPsRGhapKk5cAF0i6-75" target="tkpzPsRGhapKk5cAF0i6-10">
          <mxGeometry width="50" height="50" relative="1" as="geometry">
            <mxPoint x="410" y="570" as="sourcePoint" />
            <mxPoint x="750" y="520" as="targetPoint" />
          </mxGeometry>
        </mxCell>
      </root>
    </mxGraphModel>
  </diagram>
</mxfile>
